<?xml version="1.0" encoding="utf-8"?><!-- Generator: Adobe Illustrator 19.0.0, SVG Export Plug-In . SVG Version: 6.00 Build 0)  -->
<svg enable-background="new 0 0 1400 980" height="980px" id="Layer_1"  version="1.1" viewBox="0 0 1400 980"
	 width="1400px" x="0px" xmlns="http://www.w3.org/2000/svg" y="0px" xml:space="preserve">
<g id="XMLID_8_">
	<g id="XMLID_2_">
		<path d="M269.6,427.4c7.6-3.3,16-3.3,23.6,0c9.6,4.2,25.8,6.1,50.6-5.4
			c46.4-21.4,78.4-145.8,28.7-171.5c-49.7-25.7-91.1,3.4-91.1,3.4s-41.4-29.1-91.1-3.4C140.6,276.2,172.6,400.6,219,422
			C243.8,433.5,260,431.6,269.6,427.4z" fill="#F04D49" id="XMLID_289_"/>
	</g>
	<g id="XMLID_22_">
		<path d="M343.9,422c46.4-21.4,78.4-145.8,28.7-171.5c-10.3-5.3-20.2-8.2-29.4-9.6
			c22.6,41.6,25.7,150.9-43.2,181.2c-3.1,1.3-6.1,2.8-9,4.2C300.2,431.2,316.9,434.5,343.9,422z" fill="#E53A39" id="XMLID_317_"/>
	</g>
	<g id="XMLID_5_">
		<path d="M310.1,435.9c-5.9,0-11.4-0.9-16.5-2.8c-7.8-2.8-16.4-2.8-24.2,0l0,0
			c-14.3,5.2-32,3.1-52.5-6.4c-32.7-15.1-55.7-72.7-56.7-117.1c-0.7-31.4,9.2-54,27.8-63.6c44.8-23.1,82.8-4.5,93.5,1.9
			c10.7-6.4,48.7-25.1,93.5-1.9c18.6,9.6,28.5,32.2,27.8,63.6c-1,44.4-24,102-56.7,117.1C332.8,432.8,320.8,435.9,310.1,435.9z
			 M281.4,420.7c5.3,0,10.6,0.9,15.6,2.8c11.5,4.2,27,2.1,44.7-6c26-12,49.7-62.5,50.7-108c0.4-15.8-2.1-43.8-22.2-54.3
			c-46.2-23.9-84.2,2-85.8,3.1c-1.8,1.2-4.1,1.2-5.9,0c-1.6-1.1-39.6-26.9-85.8-3.1c-20.2,10.4-22.6,38.5-22.2,54.3
			c1,45.5,24.7,96,50.7,108c17.7,8.2,33.2,10.3,44.7,6l0,0C270.9,421.6,276.1,420.7,281.4,420.7z" fill="#561114" id="XMLID_290_"/>
	</g>
	<g id="XMLID_6_">
		<path d="M276.3,254.5c0,0.1-0.1-1.1-0.2-2.9c-0.1-1.8-0.2-4.4-0.2-7.5c0-3.1,0.1-6.7,0.3-10.6
			c0.3-3.9,0.6-8,1.2-12.1c0.3-2.1,0.6-4.1,1-6.1c0.3-2,0.7-4,1.2-5.9c0.4-1.9,0.8-3.7,1.3-5.5c0.5-1.7,0.9-3.4,1.4-4.8
			c0.5-1.5,0.9-2.8,1.3-4.1c0.5-1.2,0.9-2.2,1.2-3.1c0.7-1.7,1-2.7,1-2.7l7.3,2.9c0,0-0.3,0.9-0.9,2.5c-0.3,0.8-0.6,1.8-1,2.9
			c-0.3,1.1-0.7,2.4-1.1,3.8c-0.4,1.4-0.8,2.9-1.1,4.6c-0.4,1.6-0.8,3.3-1,5.1c-0.3,1.8-0.7,3.6-0.9,5.5c-0.3,1.9-0.5,3.8-0.7,5.8
			c-0.4,3.9-0.6,7.8-0.7,11.4c0,3.7,0,7.1,0.1,10c0.1,2.9,0.3,5.3,0.5,7c0.2,1.6,0.3,2.6,0.3,2.6L276.3,254.5z" fill="#561114" id="XMLID_316_"/>
	</g>
	<g id="XMLID_4_">
		<path d="M281.4,224.2c0,0-10.1-37.6-59.2-33.1C222.3,191.1,230.8,242,281.4,224.2z" fill="#54B248" id="XMLID_285_"/>
	</g>
	<g id="XMLID_7_">
		<path d="M261.4,233.1c-7.8,0-14.9-1.9-21.2-5.6c-18.8-11.1-22.9-34.6-23.1-35.6
			c-0.2-1.4,0.1-2.9,1-4c0.9-1.1,2.2-1.8,3.6-2c52.8-4.8,64.5,36.4,64.6,36.8c0.7,2.6-0.7,5.3-3.3,6.2
			C275.4,231.7,268.1,233.1,261.4,233.1z M228.8,195.9c2.2,6.5,7,17.1,16.7,22.9c7.8,4.6,17.6,5.3,29.1,2.2
			C270.6,212.4,258.6,195.4,228.8,195.9z" fill="#561114" id="XMLID_286_"/>
	</g>
</g>
<g id="XMLID_18_">
	<g id="XMLID_10_">
		<circle cx="575.4" cy="332.2" fill="#F8951D" id="XMLID_280_" r="98.5"/>
	</g>
	<g id="XMLID_34_">
		<path d="M593.6,235.3c26.7,17.6,44.3,47.9,44.3,82.3c0,54.4-44.1,98.5-98.5,98.5
			c-6.2,0-12.3-0.6-18.3-1.7c15.6,10.3,34.2,16.3,54.2,16.3c54.4,0,98.5-44.1,98.5-98.5C673.9,284,639.3,243.9,593.6,235.3z" fill="#ED8022" id="XMLID_315_"/>
	</g>
	<g id="XMLID_9_">
		<path d="M575.4,435.8c-57.2,0-103.7-46.5-103.7-103.7c0-57.2,46.5-103.7,103.7-103.7
			S679,275,679,332.2C679,389.3,632.5,435.8,575.4,435.8z M575.4,238.8c-51.5,0-93.4,41.9-93.4,93.4c0,51.5,41.9,93.4,93.4,93.4
			s93.4-41.9,93.4-93.4C668.8,280.7,626.9,238.8,575.4,238.8z" fill="#561114" id="XMLID_282_"/>
	</g>
	<g id="XMLID_11_">
		<path d="M570.3,234.2c-0.1-0.9-2.5-22.2,9.9-41.7l8.7,5.5c-10.5,16.5-8.4,34.8-8.4,35L570.3,234.2
			z" fill="#561114" id="XMLID_281_"/>
	</g>
	<g id="XMLID_13_">
		<path d="M575.2,217c0,0-10.1-37.6-59.2-33.1C516,184,524.5,234.9,575.2,217z" fill="#54B248" id="XMLID_276_"/>
	</g>
	<g id="XMLID_12_">
		<path d="M555.1,226c-7.8,0-14.9-1.9-21.2-5.6c-18.8-11.1-22.9-34.6-23.1-35.6
			c-0.2-1.4,0.1-2.9,1-4c0.9-1.1,2.2-1.8,3.6-2c52.8-4.8,64.5,36.4,64.6,36.8c0.7,2.6-0.7,5.3-3.3,6.2
			C569.1,224.6,561.9,226,555.1,226z M522.6,188.7c2.2,6.5,7,17.1,16.7,22.9c7.8,4.6,17.6,5.3,29.1,2.2
			C564.3,205.3,552.3,188.3,522.6,188.7z" fill="#561114" id="XMLID_277_"/>
	</g>
</g>
<g id="XMLID_19_">
	<g id="XMLID_21_">
		<path d="M1165.4,246.8c0,0,10.4-18.7,24.9-19.1c14.5-0.4,38.9,6.7,37.6-6
			c-1.3-12.7-23.2-26.8-39.3-17.7c-16.1,9.1-27.3,41.1-27.3,41.1" fill="#54B248" id="XMLID_272_"/>
	</g>
	<g id="XMLID_20_">
		<path d="M1170.2,249.4l-5.8-3.2l-8.1-2.8c0.5-1.4,12-34.1,29.7-44.1c8.9-5,19.9-4.8,30.3,0.5
			c9.5,4.9,16.2,13.3,17.1,21.3c0.5,4.7-1.4,7.7-3,9.3c-5.4,5.5-16,4.5-27.1,3.4c-4.5-0.4-9.1-0.9-12.7-0.8
			C1181.2,233.4,1172.7,245,1170.2,249.4z M1200,206.5c-2.8,0-5.7,0.6-8.6,2.2c-6,3.4-11.6,11.1-16,19c4.2-3,9.3-5.3,14.9-5.4
			c4.3-0.1,9.2,0.4,14,0.8c5.7,0.5,16.4,1.6,18.4-0.2c0,0,0-0.2,0-0.6c-0.4-4.3-5.1-9.6-11.3-12.8
			C1209.2,208.4,1204.9,206.5,1200,206.5z" fill="#561114" id="XMLID_273_"/>
	</g>
	<g id="XMLID_17_">
		<path d="M1159.4,244.6c0,0,8-19.9-0.8-31.4s-29.6-26.1-19-33c10.7-6.9,35.4,1.2,38.5,19.5
			s-14.9,47.1-14.9,47.1L1159.4,244.6z" fill="#54B248" id="XMLID_271_"/>
	</g>
	<g id="XMLID_14_">
		<path d="M1103.5,252.8c0,0-59.6,160.6-55.6,182.3c4.1,21.7,138.2-114.3,140.5-150.4
			C1190.7,248.5,1121.1,217.3,1103.5,252.8z" fill="#F8951D" id="XMLID_264_"/>
	</g>
	<g id="XMLID_26_">
		<path d="M1063.8,367.8c-9.9,31.5-17.4,59.2-15.8,67.3c4.1,21.7,138.2-114.3,140.5-150.4
			c0.5-8.5-3-16.8-8.8-23.9C1163.6,291.1,1125.6,349.6,1063.8,367.8z" fill="#ED8022" id="XMLID_293_"/>
	</g>
	<g id="XMLID_15_">
		<path d="M1050.8,442.9c-4.2,0-7.4-2.6-8.2-6.7c-4.2-22.5,49.7-168.6,55.8-185.2
			c0.1-0.2,0.1-0.4,0.2-0.5c7.9-16,26.4-22.3,48.1-16.5c24.3,6.5,48.6,27.4,47.1,51.1c-1.5,23.8-48.6,76.2-63,91.7
			c-6.2,6.6-60.8,64.9-79.4,66.1C1051.3,442.8,1051.1,442.9,1050.8,442.9z M1108.5,255c-21.8,58.6-54.6,154.6-55.3,176.4
			c9.1-3.8,35.5-25.1,69.5-61.7c35.3-38,59.6-72.3,60.4-85.4c1.1-17.9-19.4-34.7-39.1-40C1137.7,242.7,1116.8,238.6,1108.5,255z" fill="#561114" id="XMLID_268_"/>
	</g>
	<g id="XMLID_16_">
		<path d="M1167.8,249.6l-7.3-4.5l-6.1-2.5l5,2l-5-2c1.9-4.8,5.6-18.7-0.1-26.1
			c-2.2-2.9-5.5-6.2-8.6-9.4c-7.8-8-15.2-15.6-14.4-23.2c0.3-2.3,1.4-5.6,5.4-8.2c6.7-4.4,17.5-4.4,27.3-0.1
			c10.7,4.7,17.8,13.2,19.5,23.2C1186.7,218.9,1168.6,248.4,1167.8,249.6z M1149.2,183.2c-2.6,0-5,0.5-6.6,1.6
			c-0.4,0.3-0.6,0.5-0.6,0.5c-0.2,2.5,7.4,10.2,11.4,14.3c3.4,3.4,6.9,7,9.5,10.4c3.4,4.5,4.8,9.8,5.2,15c3.3-8.4,5.8-17.5,4.7-24.3
			c-1.5-9.1-9.7-13.6-13.1-15.1C1156.1,184,1152.4,183.2,1149.2,183.2z" fill="#561114" id="XMLID_265_"/>
	</g>
</g>
<g id="XMLID_39_">
	<g id="XMLID_36_">
		<path d="M923.3,222.6c47.9,47.9,47.9,125.6,0,173.5c-47.9,47.9-125.6,47.9-173.5,0L923.3,222.6z" fill="#54B248" id="XMLID_263_"
			/>
	</g>
	<g id="XMLID_37_">
		<path d="M902.9,243c36.6,36.6,36.6,96.1,0,132.7c-36.6,36.6-96.1,36.6-132.7,0L902.9,243z" fill="#F04D49" id="XMLID_255_"/>
	</g>
	<g id="XMLID_56_">
		<path d="M902.9,243l-25.4,25.4c14.2,16,46.6,65.9-24.3,133.2c18.2-3.3,35.7-11.9,49.7-25.9
			C939.5,339.1,939.5,279.6,902.9,243z" fill="#E53A39" id="XMLID_314_"/>
	</g>
	<g id="XMLID_32_">
		<path d="M836.6,437.4c-32.8,0-65.6-12.5-90.6-37.5c-2.1-2.1-2.1-5.6,0-7.7l173.5-173.5
			c2.1-2.1,5.6-2.1,7.7,0c50,50,50,131.2,0,181.2C902.2,424.9,869.4,437.4,836.6,437.4z M757.6,396c46,41.9,117.5,40.7,161.9-3.8
			c44.4-44.4,45.7-115.9,3.8-161.9L757.6,396z" fill="#561114" id="XMLID_260_"/>
	</g>
	<g id="XMLID_38_">
		<path d="M836.6,408.6c-25.4,0-50.8-9.7-70.2-29l7.7-7.7c34.5,34.5,90.5,34.5,125,0
			c16.7-16.7,25.8-38.9,25.8-62.5c0-23.6-9.2-45.8-25.8-62.5l7.7-7.7c18.7,18.7,29,43.6,29,70.2c0,26.5-10.3,51.5-29,70.2
			C887.4,398.9,862,408.6,836.6,408.6z" fill="#561114" id="XMLID_259_"/>
	</g>
	<g id="XMLID_40_">
		
			<rect fill="#561114" height="12.7" id="XMLID_258_" transform="matrix(0.7071 0.7071 -0.7071 0.7071 497.7811 -475.9359)" width="10.9" x="818" y="356.6"/>
	</g>
	<g id="XMLID_41_">
		
			<rect fill="#561114" height="11.5" id="XMLID_257_" transform="matrix(0.7071 0.7071 -0.7071 0.7071 496.6707 -524.7936)" width="10.9" x="876.4" y="331.4"/>
	</g>
	<g id="XMLID_42_">
		
			<rect fill="#561114" height="14.9" id="XMLID_256_" transform="matrix(0.7071 0.7071 -0.7071 0.7071 468.0074 -544.4246)" width="10.9" x="885.7" y="285.3"/>
	</g>
</g>
<g id="XMLID_53_">
	<g id="XMLID_31_">
		<path d="M361.1,653.5c-21.4-36.9-27.6-60.5-38.5-80.6c-11-20.1-37.5-13.1-37.5-13.1
			s-26.5-7-37.5,13.1c-11,20.1-17.1,43.6-38.5,80.6c-21.4,36.9-16.2,149,76,149S382.5,690.4,361.1,653.5z" fill="#54B248" id="XMLID_250_"/>
	</g>
	<g id="XMLID_65_">
		<path d="M361.1,653.5c-21.4-36.9-27.6-60.5-38.5-80.6c-7.1-13-20.7-14.7-29.4-14.2
			c10.7,22.5,54.7,122.7,21,185.5c-15.6,29.1-44.2,42.3-72.1,47.7c11.6,6.6,25.8,10.6,43.1,10.6
			C377.4,802.5,382.5,690.4,361.1,653.5z" fill="#3E9945" id="XMLID_313_"/>
	</g>
	<g id="XMLID_51_">
		<path d="M285.1,807.6c-42.7,0-64.9-22.9-76-42.2c-20.8-36.1-19.1-89.4-4.5-114.5
			c12.8-22,19.9-39,26.2-53.9c4.2-9.9,7.8-18.4,12.2-26.6c9.8-17.9,31-18.4,42-15.9c11-2.4,32.2-2,42,15.9
			c4.5,8.2,8.1,16.7,12.2,26.6c6.3,14.9,13.5,31.9,26.2,53.9c14.6,25.2,16.4,78.4-4.5,114.6C350,784.7,327.8,807.6,285.1,807.6z
			 M274.6,563.7c-7.3,0-17.2,2-22.4,11.7c-4.2,7.7-7.7,16-11.8,25.6c-6.1,14.5-13.7,32.5-26.8,55.1c-11.4,19.7-16.4,68.1,4.5,104.3
			c14.2,24.6,36.7,37,67.1,37c30.4,0,52.9-12.5,67.1-37c20.8-36.2,15.9-84.6,4.5-104.3l0,0c-13.1-22.6-20.7-40.6-26.8-55.1
			c-4.1-9.6-7.6-17.9-11.8-25.6c-8.9-16.4-31.4-10.7-31.7-10.6c-0.9,0.2-1.8,0.2-2.6,0C283.4,564.7,279.6,563.7,274.6,563.7z" fill="#561114" id="XMLID_252_"/>
	</g>
	<g id="XMLID_33_">
		<path d="M289.6,560.6l-10.2-1.5l5.1,0.8l-5.1-0.8c0-0.3,4.4-31.5-14.3-43.5l5.5-8.7
			C295,522.5,289.9,559,289.6,560.6z" fill="#561114" id="XMLID_251_"/>
	</g>
	<g id="XMLID_52_">
		<path d="M284.6,541.9c0,0,10.1-37.6,59.2-33.1C343.7,508.8,335.2,559.7,284.6,541.9z" fill="#54B248" id="XMLID_71_"/>
	</g>
	<g id="XMLID_46_">
		<path d="M304.6,550.8c-6.7,0-14-1.4-21.7-4.1c-2.5-0.9-4-3.6-3.3-6.2c0.1-0.4,11.9-41.7,64.6-36.8
			c1.4,0.1,2.7,0.8,3.6,2c0.9,1.1,1.2,2.6,1,4c-0.2,1-4.3,24.5-23.1,35.6C319.5,549,312.4,550.8,304.6,550.8z M291.3,538.6
			c11.6,3.1,21.4,2.4,29.2-2.2c9.8-5.8,14.5-16.3,16.7-22.8C307.5,513.1,295.4,530.1,291.3,538.6z" fill="#561114" id="XMLID_247_"/>
	</g>
</g>
<g id="XMLID_87_">
	<g id="XMLID_66_">
		<circle cx="601.1" cy="627" fill="#A92280" id="XMLID_312_" r="39.3"/>
	</g>
	<g id="XMLID_91_">
		<path d="M594.7,588.2c-1.2,2-1.6,4.6-0.3,7.7c7.9,19.3-17.8,35.8-23.3,52.1
			c-0.4,1.2-0.6,2.4-0.8,3.6c7.2,9,18.3,14.8,30.7,14.8c1.3,0,2.5-0.1,3.8-0.2c-0.2-0.1-0.3-0.2-0.5-0.3c-8.1-4.1-15.5-8.2-9.9-16.9
			c3.8-6,8.3-11.4,11.8-17.7c7-12.5,13.7-26.5,7.8-40.8c-0.1-0.3-0.3-0.5-0.4-0.7c-4-1.4-8.2-2.1-12.7-2.1
			C598.9,587.6,596.8,587.8,594.7,588.2z" fill="#88236C" id="XMLID_311_"/>
	</g>
	<g id="XMLID_59_">
		<path d="M601.1,671.5c-24.5,0-44.5-20-44.5-44.5c0-24.5,20-44.5,44.5-44.5
			c24.5,0,44.5,20,44.5,44.5C645.6,651.5,625.6,671.5,601.1,671.5z M601.1,592.8c-18.9,0-34.2,15.3-34.2,34.2
			c0,18.9,15.3,34.2,34.2,34.2c18.9,0,34.2-15.3,34.2-34.2C635.3,608.1,619.9,592.8,601.1,592.8z" fill="#561114" id="XMLID_244_"/>
	</g>
	<g id="XMLID_67_">
		<circle cx="522.8" cy="627" fill="#A92280" id="XMLID_310_" r="39.3"/>
	</g>
	<g id="XMLID_92_">
		<path d="M548.1,636.1c-1.3,0.1-2.6,0.4-3.8,0.9c-5.7-14.2-23.2-22.4-15.2-40.2
			c1.4-3.1,1.2-6,0.1-8.6c-2.1-0.4-4.3-0.6-6.5-0.6c-4.4,0-8.6,0.7-12.5,2.1c-4.4,11.4-4.9,23.7,0.9,35.1
			c3.2,6.2,11.6,11.9,13.6,18.3c2.4,7.8-6.7,14.3-10.4,20.3c-0.4,0.6-0.6,1.2-0.9,1.7c3,0.7,6.1,1.2,9.3,1.2c6.2,0,12.1-1.5,17.3-4
			c1.5-2.1,2.8-4.2,3.9-6.5c1.3,0.6,2.7,1,4.2,0.9c0.1,0,0.3,0,0.4-0.1c4-3.4,7.2-7.7,9.5-12.4C557.1,639.7,552.9,635.9,548.1,636.1
			z" fill="#88236C" id="XMLID_309_"/>
	</g>
	<g id="XMLID_54_">
		<path d="M522.8,671.5c-24.5,0-44.5-20-44.5-44.5c0-24.5,20-44.5,44.5-44.5
			c24.5,0,44.5,20,44.5,44.5C567.2,651.5,547.3,671.5,522.8,671.5z M522.8,592.8c-18.9,0-34.2,15.3-34.2,34.2
			c0,18.9,15.3,34.2,34.2,34.2c18.9,0,34.2-15.3,34.2-34.2C557,608.1,541.6,592.8,522.8,592.8z" fill="#561114" id="XMLID_241_"/>
	</g>
	<g id="XMLID_73_">
		<circle cx="534.4" cy="755.7" fill="#A92280" id="XMLID_308_" r="38.7"/>
	</g>
	<g id="XMLID_93_">
		<path d="M573.2,755.9c-2.7-7.4-6.5-14.5-11.1-20.9c-5.2-7.3-11.4-12.8-18.3-16.8
			c-3-0.7-6.1-1.2-9.3-1.2c-11.3,0-21.4,4.8-28.4,12.5c0.4,0.1,0.8,0.1,1.2,0.1c16.7,0.3,30,4.6,39.6,19.1
			c7.7,11.8,12.5,25.4,9,39.2C566.2,781.1,573.1,769.3,573.2,755.9z" fill="#88236C" id="XMLID_307_"/>
	</g>
	<g id="XMLID_69_">
		<path d="M534.4,799.6c-24.2,0-43.9-19.7-43.9-43.9c0-24.2,19.7-43.9,43.9-43.9
			c24.2,0,43.9,19.7,43.9,43.9C578.3,779.9,558.6,799.6,534.4,799.6z M534.4,722.1c-18.5,0-33.6,15.1-33.6,33.6
			c0,18.5,15.1,33.6,33.6,33.6c18.5,0,33.6-15.1,33.6-33.6C568,737.2,553,722.1,534.4,722.1z" fill="#561114" id="XMLID_238_"/>
	</g>
	<g id="XMLID_76_">
		<circle cx="611.9" cy="701.9" fill="#A92280" id="XMLID_306_" r="36.3"/>
	</g>
	<g id="XMLID_90_">
		<path d="M593.8,731.3c-0.8,0.2-1.5,0.4-2.1,0.7c5.8,3.9,12.7,6.1,20.2,6.1
			c5.9,0,11.4-1.4,16.3-3.9c17.2-13,21.6-33,13.9-52.4c-6.5-9.8-17.6-16.2-30.2-16.2c-0.8,0-1.6,0.1-2.4,0.1
			c0.4,0.7,0.9,1.3,1.6,1.9C633.5,689,623.9,724.2,593.8,731.3z" fill="#88236C" id="XMLID_305_"/>
	</g>
	<g id="XMLID_75_">
		<path d="M611.9,743.3c-22.8,0-41.4-18.6-41.4-41.4c0-22.8,18.6-41.4,41.4-41.4
			c22.8,0,41.4,18.6,41.4,41.4C653.3,724.8,634.7,743.3,611.9,743.3z M611.9,670.8c-17.2,0-31.1,14-31.1,31.1
			c0,17.2,14,31.1,31.1,31.1c17.2,0,31.1-14,31.1-31.1C643,684.8,629.1,670.8,611.9,670.8z" fill="#561114" id="XMLID_235_"/>
	</g>
	<g id="XMLID_80_">
		<circle cx="591.8" cy="753.3" fill="#A92280" id="XMLID_304_" r="36.3"/>
	</g>
	<g id="XMLID_89_">
		<path d="M628.1,753.3c0-19.3-15.1-35-34-36.2c0.3,1.9,1.2,3.8,3,5.5c13.7,13.1,21.3,29.7,9,47
			c-6.5,9.1-16.2,15.5-26.8,17.6c3.9,1.5,8.1,2.3,12.6,2.3C611.9,789.5,628.1,773.3,628.1,753.3z" fill="#88236C" id="XMLID_303_"/>
	</g>
	<g id="XMLID_79_">
		<path d="M591.8,794.7c-22.8,0-41.4-18.6-41.4-41.4s18.6-41.4,41.4-41.4
			c22.8,0,41.4,18.6,41.4,41.4S614.7,794.7,591.8,794.7z M591.8,722.1c-17.2,0-31.1,14-31.1,31.1c0,17.2,14,31.1,31.1,31.1
			c17.2,0,31.1-14,31.1-31.1C623,736.1,609,722.1,591.8,722.1z" fill="#561114" id="XMLID_127_"/>
	</g>
	<g id="XMLID_78_">
		<circle cx="504.3" cy="691.8" fill="#A92280" id="XMLID_302_" r="36.3"/>
	</g>
	<g id="XMLID_95_">
		<path d="M536.1,709.3c-8.7-11.5-12-25.9-8.9-40.3c0.4-2,0.3-3.8-0.3-5.5
			c-3.9-3.2-8.5-5.5-13.6-6.8c-2.7,0.9-5,3-5.8,6.8c-4.7,21.6,0.3,43.2,14,60.2C527.7,720.4,532.7,715.4,536.1,709.3z" fill="#88236C" id="XMLID_301_"/>
	</g>
	<g id="XMLID_77_">
		<path d="M504.3,733.2c-22.8,0-41.4-18.6-41.4-41.4s18.6-41.4,41.4-41.4
			c22.8,0,41.4,18.6,41.4,41.4S527.2,733.2,504.3,733.2z M504.3,660.6c-17.2,0-31.1,14-31.1,31.1s14,31.1,31.1,31.1
			c17.2,0,31.1-14,31.1-31.1S521.5,660.6,504.3,660.6z" fill="#561114" id="XMLID_119_"/>
	</g>
	<g id="XMLID_82_">
		<circle cx="562.1" cy="601.6" fill="#A92280" id="XMLID_300_" r="39.3"/>
	</g>
	<g id="XMLID_98_">
		<path d="M562.1,562.2c-2.9,0-5.8,0.3-8.6,1c0.5,2.4,2.1,4.6,5.1,6c25.5,11.4,32.7,55.6,10.7,71.1
			c18.2-3.4,32.1-19.4,32.1-38.6c0-2.5-0.3-5-0.7-7.4c-0.5-2.1-1.1-4.1-1.7-6.2C593.5,572.9,579.1,562.2,562.1,562.2z" fill="#88236C" id="XMLID_299_"/>
	</g>
	<g id="XMLID_81_">
		<path d="M562.1,646c-24.5,0-44.5-20-44.5-44.5c0-24.5,20-44.5,44.5-44.5c24.5,0,44.5,20,44.5,44.5
			C606.6,626.1,586.6,646,562.1,646z M562.1,567.4c-18.9,0-34.2,15.3-34.2,34.2c0,18.9,15.3,34.2,34.2,34.2
			c18.9,0,34.2-15.3,34.2-34.2C596.3,582.7,581,567.4,562.1,567.4z" fill="#561114" id="XMLID_111_"/>
	</g>
	<g id="XMLID_55_">
		<circle cx="562.1" cy="685.6" fill="#A92280" id="XMLID_298_" r="35.3"/>
	</g>
	<g id="XMLID_88_">
		<path d="M562.1,721c19.5,0,35.3-15.8,35.3-35.3c0-6.6-1.8-12.7-4.9-17.9c-1.5-0.3-3-0.3-4.5,0
			c-1.6-4.4-3.9-8.4-6.9-11.9c-5.5-3.5-12-5.6-19-5.6c-2.3,0-4.5,0.2-6.6,0.6c-2.1,5.1-0.7,12.2,6,14.7c10.4,3.9,10,19.1,6.3,27.3
			c-4,8.9-12.1,14.5-21.8,15.6c-3.1,0.3-5.4,1.8-7.1,3.7C545.1,717.7,553.2,721,562.1,721z" fill="#88236C" id="XMLID_297_"/>
	</g>
	<g id="XMLID_64_">
		<path d="M562.1,726.1c-22.3,0-40.5-18.2-40.5-40.5c0-22.3,18.2-40.5,40.5-40.5
			c22.3,0,40.5,18.2,40.5,40.5C602.6,708,584.4,726.1,562.1,726.1z M562.1,655.4c-16.7,0-30.2,13.6-30.2,30.2
			c0,16.7,13.6,30.2,30.2,30.2c16.7,0,30.2-13.6,30.2-30.2C592.3,669,578.8,655.4,562.1,655.4z" fill="#561114" id="XMLID_74_"/>
	</g>
	<g id="XMLID_83_">
		<path d="M567.2,562.4L557,562c0-0.3,1-25.4-8-41.5l9-5C568.4,534.1,567.3,561.3,567.2,562.4z" fill="#561114" id="XMLID_72_"/>
	</g>
	<g id="XMLID_84_">
		<path d="M562.2,546.1c0,0,9.7-35.9,56.6-31.6C618.8,514.5,610.6,563.2,562.2,546.1z" fill="#54B248" id="XMLID_61_"/>
	</g>
	<g id="XMLID_68_">
		<path d="M581.3,554.9c-6.4,0-13.4-1.3-20.9-3.9c-2.5-0.9-4-3.6-3.3-6.2
			c0.1-0.4,11.5-40.1,62.1-35.4c1.4,0.1,2.7,0.8,3.6,2c0.9,1.1,1.2,2.6,1,4c-0.2,1-4.1,23.6-22.2,34.2
			C595.6,553.1,588.8,554.9,581.3,554.9z M568.9,542.8c10.9,2.9,20.1,2.2,27.5-2.1c9.1-5.4,13.7-15.2,15.8-21.5
			C584,518.9,572.8,534.7,568.9,542.8z" fill="#561114" id="XMLID_62_"/>
	</g>
</g>
<g id="XMLID_102_">
	<g id="XMLID_101_">
		<path d="M900.7,582.4c-26.6,3.9-50.2,5.9-50.2,5.9s-23.6-1.9-50.2-5.9
			c-26.6-3.9-64.9,8.7-65.8,61.9c-0.9,53.2,60.2,154.1,116,154.1c55.8,0,116.9-100.8,116-154.1C965.6,591,927.3,578.4,900.7,582.4z" fill="#F04D49" id="XMLID_49_"
			/>
	</g>
	<g id="XMLID_107_">
		<path d="M850.5,798.3c55.8,0,116.9-100.8,116-154.1c-0.8-45.9-29.4-61.6-54.4-62.5
			c11.4,40.5,17.2,107.1-37.2,151.7c-25.9,21.2-53,32.6-78,38.2C813.8,787.7,832.5,798.3,850.5,798.3z" fill="#E53A39" id="XMLID_296_"/>
	</g>
	<g id="XMLID_100_">
		<path d="M850.5,803.4c-19.4,0-40.5-11.1-61.1-32c-34.3-34.9-60.7-90.8-60.1-127.3
			c0.4-23.3,8-41.9,21.9-53.7c12.9-11,31.6-15.9,49.8-13.2c24.2,3.6,46.1,5.5,49.4,5.8c3.3-0.3,25.2-2.2,49.4-5.8l0,0
			c18.3-2.7,36.9,2.2,49.8,13.2c13.9,11.8,21.5,30.4,21.9,53.7c0.6,36.5-25.7,92.4-60.1,127.3C891.1,792.4,869.9,803.4,850.5,803.4z
			 M791.2,586.8c-12.5,0-24.5,4.1-33.2,11.5c-11.7,10-17.9,25.5-18.3,46c-0.6,33.5,25,87.3,57.1,119.9
			c18.6,18.9,37.2,28.9,53.7,28.9c16.6,0,35.2-10,53.7-28.9c32.1-32.6,57.7-86.4,57.1-119.9c-0.4-20.6-6.5-36.1-18.3-46
			c-10.7-9.1-26.3-13.1-41.7-10.9c-26.5,3.9-50.3,5.9-50.5,5.9c-0.3,0-0.6,0-0.8,0c-0.2,0-24-2-50.5-5.9
			C796.8,587,794,586.8,791.2,586.8z" fill="#561114" id="XMLID_57_"/>
	</g>
	<g id="XMLID_85_">
		<path d="M896,583c16.8,0.9,47.9,38.9,36.6,35.2c-11.4-3.6-42.7-8.3-52.9-6.9
			c-10.2,1.4-11.6,45.3-22.8,43.4c-11.2-1.9-12.8-18.9-17-31.9c-4.2-13-10.3-7.7-34.8-7c-24.5,0.7-39.4-5.6-23.1-15.8
			c16.3-10.2,20.8-18.5,20.8-18.5s-18.3-10.7-25.1-11.4c-6.8-0.7,26.4-13.5,49.7-3.3c23.3,10.3,21.2,10,34.5,7
			c13.3-3,35.5-9.1,46.2-3.7C919,575.6,896,583,896,583z" fill="#54B248" id="XMLID_28_"/>
	</g>
	<g id="XMLID_99_">
		<path d="M857.8,660c-0.6,0-1.2-0.1-1.8-0.2c-12.1-2.1-15.6-15.3-18.6-27c-0.8-3-1.5-5.8-2.4-8.4
			c-1.8-5.6-1.8-5.7-13.8-4.5c-4.2,0.4-9.5,0.9-16,1.1c-14.3,0.4-32-1.1-34.9-10.6c-1.5-5.1,1.5-10,8.9-14.6c8-5,13-9.5,15.8-12.6
			c-6.8-3.7-14.8-7.6-17.9-7.9c-3.7-0.4-4.9-2.8-5.2-3.9c-0.7-2.1,0-4.4,1.8-6c5.3-4.8,34.4-12.6,55.8-3.2l4.7,2.1
			c16,7.1,16,7.1,25,5l1.7-0.4c1.3-0.3,2.7-0.6,4.1-1c14.4-3.4,34.2-8,45.6-2.4c5.3,2.6,5.8,6.4,5.7,8.4c-0.3,3.4-3,6.3-6.8,8.7
			c13.4,8,27,24,29.9,31c1.7,4.1,0.5,6.7-0.8,8c-1,1.1-3.4,2.8-7.5,1.5c-11-3.5-41.1-7.8-50.3-6.7c-2.2,1.8-5,11.8-6.6,17.8
			C870.6,646.9,866.9,660,857.8,660z M829,609.2c7.4,0,12.6,2.2,15.9,12.2c0.9,2.9,1.7,6,2.5,8.9c2.3,8.9,4.8,18,10,19.4
			c2.3-2,5.2-12.5,6.8-18.2c3.6-12.9,6.6-24,14.8-25.2c9.2-1.3,32.3,1.8,46.8,4.9c-7.2-9-21.8-22.6-30.1-23.1
			c-2.5-0.1-4.5-2-4.8-4.5c-0.3-2.5,1.2-4.8,3.5-5.6c3.4-1.1,7.1-2.7,9.4-4.1c-8.9-2.5-26,1.5-36.5,4c-1.5,0.3-2.9,0.7-4.2,1
			l-1.7,0.4c-12.3,2.8-13.7,2.2-31.4-5.6l-4.7-2.1c-10.9-4.8-24.6-3.9-34-1.9c6.3,3,12.3,6.4,14.1,7.5c2.4,1.4,3.2,4.5,1.9,6.9
			c-0.5,1-5.7,9.8-22.6,20.4c-2.3,1.4-3.4,2.5-4,3.1c2.4,1.5,9.9,3.5,24.2,3.1c6.2-0.2,11.2-0.7,15.3-1
			C823.4,609.5,826.3,609.2,829,609.2z" fill="#561114" id="XMLID_45_"/>
	</g>
	<g id="XMLID_103_">
		<rect fill="#561114" height="10.3" id="XMLID_44_" width="11.6" x="787.8" y="695"/>
	</g>
	<g id="XMLID_104_">
		<rect fill="#561114" height="10.3" id="XMLID_43_" width="10.4" x="846.7" y="747.5"/>
	</g>
	<g id="XMLID_105_">
		<rect fill="#561114" height="10.3" id="XMLID_35_" width="10.6" x="911.6" y="677.3"/>
	</g>
	<g id="XMLID_106_">
		<rect fill="#561114" height="10.3" id="XMLID_30_" width="13" x="790.2" y="642.8"/>
	</g>
	<g id="XMLID_97_">
		<path d="M845.5,589c-0.3-1.9-6.9-46.7,20.9-67.9l6.2,8.2c-22.9,17.5-17,57.7-17,58.2L845.5,589z" fill="#561114" id="XMLID_29_"/>
	</g>
</g>
<g id="XMLID_112_">
	<g id="XMLID_109_">
		<path d="M1012.5,740.8c0,0,76-5.1,119.4-52.2c43.4-47.1,58.6-102.5,53.8-121
			c-4.8-18.5-12.3-28.5-12.3-28.5l20.2-9.6c0,0,2.6,26.9,13.1,37.4c10.5,10.5,62.1,48.4-9.4,143.6s-131.5,74.3-153.9,63.7
			s-41.8-16-39.6-22.9C1006,744.6,1007.3,741.4,1012.5,740.8z" fill="#F2B91B" id="XMLID_23_"/>
	</g>
	<g id="XMLID_121_">
		<path d="M1055.3,754.5c110.3-5.6,159.4-92.4,178.6-141.7c-3.8-26.4-21.4-40.1-27.1-45.8
			c-10.5-10.5-13.1-37.4-13.1-37.4l-20.2,9.6c0,0,7.5,10,12.3,28.5c4.8,18.5-10.4,73.9-53.8,121c-43.4,47.1-119.4,52.2-119.4,52.2
			c-5.2,0.5-6.5,3.7-8.7,10.6c-0.1,0.2-0.1,0.5-0.1,0.7C1017.5,754.6,1034.5,755.5,1055.3,754.5z" fill="#EFDF1A" id="XMLID_295_"/>
	</g>
	<g id="XMLID_110_">
		<path d="M1084.4,789c-14.4,0-28.8-3.3-43.1-10.1c-5.9-2.8-11.7-5.3-16.8-7.4
			c-17.2-7.3-28.6-12.2-25.6-21.6c2.1-6.5,4.2-13.2,13.1-14.1c0.1,0,0.1,0,0.2,0c0.7-0.1,74.5-5.6,116-50.6
			c42.4-46.1,56.8-100.1,52.6-116.2c-4.5-17.1-11.4-26.6-11.4-26.7c-0.9-1.2-1.2-2.8-0.9-4.3c0.4-1.5,1.4-2.7,2.8-3.4l20.2-9.6
			c1.5-0.7,3.3-0.7,4.7,0.2c1.5,0.8,2.4,2.3,2.6,4c0.7,7,4.1,26.7,11.7,34.3c0.6,0.6,1.3,1.3,2.2,2.1
			c14.6,13.6,58.9,55.1-11.1,148.2C1164,763.6,1124.1,789,1084.4,789z M1009,752.2c2.2,2.4,11.8,6.5,19.5,9.8
			c5.2,2.2,11.1,4.7,17.2,7.6c48.7,23,99.8,1.5,147.6-62.2c64.4-85.7,26.6-121.2,12.3-134.5c-0.9-0.9-1.8-1.7-2.4-2.3
			c-8.2-8.2-12-24-13.6-33.4l-8.7,4.1c2.8,5,6.8,13.4,9.8,25c5.5,21-10.9,77.9-55,125.7c-43.9,47.7-118.5,53.6-122.8,53.9
			C1011.4,746.1,1010.9,746.3,1009,752.2z" fill="#561114" id="XMLID_24_"/>
	</g>
</g>
</svg>
